<?xml version="1.0" encoding="UTF-8" ?>
<svg version="1.1" width="16" height="16" xmlns="http://www.w3.org/2000/svg" shape-rendering="crispEdges">
<rect x="1" y="0" width="14" height="1" fill="#0F380F" />
<rect x="0" y="1" width="1" height="14" fill="#0F380F" />
<rect x="1" y="1" width="4" height="4" fill="#306230" />
<rect x="5" y="1" width="2" height="1" fill="#0F380F" />
<rect x="7" y="1" width="7" height="1" fill="#306230" />
<rect x="14" y="1" width="2" height="1" fill="#0F380F" />
<rect x="5" y="2" width="1" height="3" fill="#306230" />
<rect x="6" y="2" width="2" height="1" fill="#0F380F" />
<rect x="8" y="2" width="7" height="1" fill="#306230" />
<rect x="15" y="2" width="1" height="13" fill="#0F380F" />
<rect x="6" y="3" width="1" height="1" fill="#306230" />
<rect x="7" y="3" width="8" height="1" fill="#0F380F" />
<rect x="6" y="4" width="1" height="1" fill="#8BAC0F" />
<rect x="7" y="4" width="2" height="8" fill="#9BBC0F" />
<rect x="9" y="4" width="6" height="8" fill="#8BAC0F" />
<rect x="1" y="5" width="5" height="1" fill="#8BAC0F" />
<rect x="6" y="5" width="1" height="7" fill="#9BBC0F" />
<rect x="1" y="6" width="5" height="6" fill="#9BBC0F" />
<rect x="1" y="12" width="4" height="1" fill="#9BBC0F" />
<rect x="5" y="12" width="6" height="1" fill="#306230" />
<rect x="11" y="12" width="4" height="1" fill="#8BAC0F" />
<rect x="1" y="13" width="3" height="2" fill="#9BBC0F" />
<rect x="4" y="13" width="1" height="2" fill="#306230" />
<rect x="5" y="13" width="6" height="1" fill="#0F380F" />
<rect x="11" y="13" width="1" height="2" fill="#306230" />
<rect x="12" y="13" width="3" height="2" fill="#8BAC0F" />
<rect x="5" y="14" width="6" height="1" fill="#306230" />
<rect x="1" y="15" width="14" height="1" fill="#0F380F" />
</svg>