<?xml version="1.0" encoding="UTF-8" ?>
<svg version="1.1" width="16" height="16" xmlns="http://www.w3.org/2000/svg" shape-rendering="crispEdges">
<rect x="0" y="0" width="16" height="1" fill="#0F380F" />
<rect x="0" y="1" width="2" height="1" fill="#0F380F" />
<rect x="2" y="1" width="1" height="1" fill="#8BAC0F" />
<rect x="3" y="1" width="2" height="1" fill="#0F380F" />
<rect x="5" y="1" width="10" height="1" fill="#306230" />
<rect x="15" y="1" width="1" height="15" fill="#0F380F" />
<rect x="0" y="2" width="1" height="14" fill="#0F380F" />
<rect x="1" y="2" width="1" height="12" fill="#2A572A" />
<rect x="2" y="2" width="1" height="1" fill="#0F380F" />
<rect x="3" y="2" width="2" height="1" fill="#8BAC0F" />
<rect x="5" y="2" width="2" height="1" fill="#0F380F" />
<rect x="7" y="2" width="8" height="1" fill="#306230" />
<rect x="2" y="3" width="1" height="10" fill="#2A572A" />
<rect x="3" y="3" width="1" height="1" fill="#0F380F" />
<rect x="4" y="3" width="3" height="1" fill="#8BAC0F" />
<rect x="7" y="3" width="2" height="1" fill="#0F380F" />
<rect x="9" y="3" width="6" height="1" fill="#306230" />
<rect x="3" y="4" width="1" height="8" fill="#2A572A" />
<rect x="4" y="4" width="1" height="1" fill="#0F380F" />
<rect x="5" y="4" width="4" height="1" fill="#8BAC0F" />
<rect x="9" y="4" width="2" height="1" fill="#0F380F" />
<rect x="11" y="4" width="4" height="1" fill="#306230" />
<rect x="4" y="5" width="1" height="6" fill="#2A572A" />
<rect x="5" y="5" width="1" height="1" fill="#0F380F" />
<rect x="6" y="5" width="4" height="1" fill="#8BAC0F" />
<rect x="10" y="5" width="3" height="1" fill="#0F380F" />
<rect x="13" y="5" width="2" height="1" fill="#306230" />
<rect x="5" y="6" width="1" height="4" fill="#2A572A" />
<rect x="6" y="6" width="1" height="1" fill="#0F380F" />
<rect x="7" y="6" width="2" height="1" fill="#8BAC0F" />
<rect x="9" y="6" width="1" height="1" fill="#0F380F" />
<rect x="10" y="6" width="3" height="4" fill="#9BBC0F" />
<rect x="13" y="6" width="2" height="1" fill="#0F380F" />
<rect x="6" y="7" width="1" height="2" fill="#2A572A" />
<rect x="7" y="7" width="2" height="2" fill="#0F380F" />
<rect x="9" y="7" width="1" height="2" fill="#9BBC0F" />
<rect x="13" y="7" width="2" height="2" fill="#9BBC0F" />
<rect x="6" y="9" width="1" height="1" fill="#0F380F" />
<rect x="7" y="9" width="2" height="3" fill="#81A10E" />
<rect x="9" y="9" width="1" height="1" fill="#0F380F" />
<rect x="13" y="9" width="2" height="1" fill="#0F380F" />
<rect x="5" y="10" width="1" height="1" fill="#0F380F" />
<rect x="6" y="10" width="1" height="3" fill="#81A10E" />
<rect x="9" y="10" width="1" height="1" fill="#81A10E" />
<rect x="10" y="10" width="3" height="1" fill="#0F380F" />
<rect x="13" y="10" width="2" height="5" fill="#306230" />
<rect x="4" y="11" width="1" height="1" fill="#0F380F" />
<rect x="5" y="11" width="1" height="2" fill="#81A10E" />
<rect x="9" y="11" width="2" height="1" fill="#0F380F" />
<rect x="11" y="11" width="2" height="4" fill="#306230" />
<rect x="3" y="12" width="1" height="1" fill="#0F380F" />
<rect x="4" y="12" width="1" height="2" fill="#81A10E" />
<rect x="7" y="12" width="2" height="1" fill="#0F380F" />
<rect x="9" y="12" width="2" height="3" fill="#306230" />
<rect x="2" y="13" width="1" height="1" fill="#0F380F" />
<rect x="3" y="13" width="1" height="1" fill="#81A10E" />
<rect x="5" y="13" width="2" height="1" fill="#0F380F" />
<rect x="7" y="13" width="2" height="2" fill="#306230" />
<rect x="1" y="14" width="1" height="2" fill="#0F380F" />
<rect x="2" y="14" width="1" height="1" fill="#8BAC0F" />
<rect x="3" y="14" width="2" height="2" fill="#0F380F" />
<rect x="5" y="14" width="2" height="1" fill="#306230" />
<rect x="2" y="15" width="1" height="1" fill="#0F380F" />
<rect x="5" y="15" width="10" height="1" fill="#0F380F" />
</svg>